<svg width="39" height="21" viewBox="0 0 39 21" fill="none" xmlns="http://www.w3.org/2000/svg">
<rect width="39" height="21" rx="9" fill="#062A55"/>
<g clip-path="url(#clip0_1235_309)">
<path d="M23.0714 4.21436H13.6428C12.8092 4.21436 11.2856 5.00007 11.2856 5.00007C11.2856 5.00007 5.78564 7.30939 5.78564 8.14293V12.8572C5.78564 13.6907 11.2856 16.0001 11.2856 16.0001C11.2856 16.0001 12.8092 16.7858 13.6428 16.7858H23.0714M30.7874 5.79213C30.4967 5.81834 30.2191 5.92497 29.9856 6.10007L26.2142 8.92864V12.0715L29.9856 14.9001C30.2191 15.0752 30.4967 15.1818 30.7874 15.208" stroke="white" stroke-width="2" stroke-linecap="round" stroke-linejoin="round"/>
<path d="M12.9098 12.857V8.39749H14.3187V12.857H12.9098ZM13.6176 7.82263C13.4081 7.82263 13.2284 7.76166 13.0785 7.63972C12.9308 7.51584 12.8569 7.36777 12.8569 7.19551C12.8569 7.02518 12.9308 6.87904 13.0785 6.7571C13.2284 6.63323 13.4081 6.57129 13.6176 6.57129C13.827 6.57129 14.0056 6.63323 14.1533 6.7571C14.3032 6.87904 14.3782 7.02518 14.3782 7.19551C14.3782 7.36777 14.3032 7.51584 14.1533 7.63972C14.0056 7.76166 13.827 7.82263 13.6176 7.82263Z" fill="white"/>
<path d="M19.0115 10.2788V12.857H17.6026V8.39749H18.9453V9.18429H19.0049C19.1173 8.92492 19.3058 8.71975 19.5704 8.56878C19.8349 8.41587 20.1557 8.33942 20.5327 8.33942C20.8855 8.33942 21.1931 8.40716 21.4554 8.54265C21.7178 8.67814 21.9217 8.8717 22.0672 9.12332C22.2127 9.373 22.2855 9.67108 22.2855 10.0175V12.857H20.8767V10.2382C20.8789 9.96528 20.7995 9.75237 20.6386 9.59946C20.4776 9.44462 20.256 9.3672 19.9738 9.3672C19.7842 9.3672 19.6167 9.40301 19.4712 9.47462C19.3278 9.54624 19.2154 9.65076 19.1338 9.78818C19.0545 9.92367 19.0137 10.0872 19.0115 10.2788Z" fill="white"/>
<rect x="27" y="9.71436" width="4.71429" height="1.57143" fill="white"/>
</g>
<defs>
<clipPath id="clip0_1235_309">
<rect width="30" height="17" fill="white" transform="translate(5 2)"/>
</clipPath>
</defs>
</svg>
